<svg width="34" height="34" viewBox="0 0 34 34" fill="none" xmlns="http://www.w3.org/2000/svg">
<path d="M1.42192 0.00846905C0.989972 0.153673 0.617428 0.43627 0.361185 0.813098C0.104942 1.18993 -0.0209149 1.64027 0.00283807 2.09535V31.3117C0.00283807 31.8652 0.222705 32.396 0.614071 32.7873C1.00544 33.1787 1.53624 33.3986 2.08972 33.3986H31.306C31.8595 33.3986 32.3903 33.1787 32.7817 32.7873C33.1731 32.396 33.3929 31.8652 33.3929 31.3117V2.09535C33.3929 1.54187 33.1731 1.01107 32.7817 0.619702C32.3903 0.228336 31.8595 0.00846905 31.306 0.00846905L2.08972 0.00846905C1.96476 -0.00282302 1.83904 -0.00282302 1.71408 0.00846905C1.63068 0.00345602 1.54705 0.00345602 1.46365 0.00846905L1.42192 0.00846905ZM6.26348 4.18223C7.43213 4.18223 8.35036 5.10046 8.35036 6.26911C8.35036 7.43776 7.43213 8.35599 6.26348 8.35599C5.09483 8.35599 4.1766 7.43776 4.1766 6.26911C4.1766 5.10046 5.09483 4.18223 6.26348 4.18223ZM14.611 4.18223H27.1323C28.3009 4.18223 29.2192 5.10046 29.2192 6.26911C29.2192 7.43776 28.3009 8.35599 27.1323 8.35599H14.611C13.4423 8.35599 12.5241 7.43776 12.5241 6.26911C12.5241 5.10046 13.4423 4.18223 14.611 4.18223ZM4.1766 12.5298H29.2192V29.2248H4.1766V12.5298Z" fill="black"/>
</svg>
